<svg height="512pt" viewBox="-43 0 512 512" width="512pt" xmlns="http://www.w3.org/2000/svg"><path d="m86.832031 283.730469-53.925781 228.269531h392.398438l-119.324219-512h-153.75l-22.234375 95.40625c13.507812 6.332031 25.382812 15.597656 34.785156 26.972656l19.199219-82.378906h90.25l72.710937 312h-97.835937v-40h40v-40h-40v-40h40v-40h-40v-101h-40v221.546875l-71.171875-93.816406c6.160156-9.421875 9.753906-20.660157 9.753906-32.730469 0-33.085938-26.917969-60-60-60-6.273438 0-12.316406.972656-18.003906 2.761719l-37.816406-49.847657-31.867188 24.175782 37.726562 49.730468c-6.335937 9.511719-10.039062 20.917969-10.039062 33.179688 0 33.085938 26.914062 60 60 60 6.453125 0 12.671875-1.035156 18.503906-2.933594l82.636719 108.933594h-77.558594l6.425781-27.582031zm-19.144531-97.730469c0-11.027344 8.96875-20 20-20 11.027344 0 20 8.972656 20 20s-8.972656 20-20 20c-11.03125 0-20-8.972656-20-20zm288.578125 206 18.640625 80h-291.601562l18.640624-80zm0 0"/></svg>